<svg width="30" height="35" viewBox="0 0 30 35" fill="none" xmlns="http://www.w3.org/2000/svg">
<path d="M29.3712 27.2756C28.8326 28.4984 28.1951 29.624 27.4564 30.6589C26.4495 32.0696 25.6251 33.0461 24.9897 33.5884C24.0048 34.4785 22.9496 34.9343 21.8196 34.9603C21.0084 34.9603 20.03 34.7334 18.8913 34.2733C17.7487 33.8152 16.6987 33.5884 15.7387 33.5884C14.7318 33.5884 13.6519 33.8152 12.4969 34.2733C11.34 34.7334 10.4081 34.9732 9.69559 34.997C8.61197 35.0424 7.53188 34.5736 6.45376 33.5884C5.76565 32.9986 4.90495 31.9875 3.87388 30.5552C2.76762 29.0256 1.85813 27.2519 1.14561 25.2297C0.38253 23.0455 0 20.9304 0 18.8828C0 16.5372 0.515756 14.5142 1.54881 12.8189C2.36069 11.4572 3.44079 10.383 4.79261 9.59447C6.14444 8.80591 7.60509 8.40407 9.17807 8.37836C10.0388 8.37836 11.1674 8.63999 12.5701 9.15417C13.9687 9.67008 14.8668 9.93171 15.2605 9.93171C15.5549 9.93171 16.5525 9.62579 18.2438 9.0159C19.8432 8.4503 21.193 8.21611 22.2988 8.30836C25.2953 8.54601 27.5465 9.70681 29.0437 11.7981C26.3638 13.3938 25.0381 15.6288 25.0645 18.4959C25.0887 20.7291 25.9131 22.5875 27.5333 24.0631C28.2676 24.7479 29.0876 25.2772 30 25.6531C29.8021 26.217 29.5933 26.7571 29.3712 27.2756ZM22.4989 0.700199C22.4989 2.4506 21.8482 4.08494 20.5511 5.59767C18.9858 7.39601 17.0925 8.43518 15.0394 8.2712C15.0132 8.06121 14.998 7.8402 14.998 7.60795C14.998 5.92757 15.7424 4.12923 17.0643 2.65884C17.7243 1.91436 18.5637 1.29533 19.5816 0.801522C20.5972 0.31508 21.558 0.0460673 22.4615 0C22.4879 0.234001 22.4989 0.468017 22.4989 0.700177V0.700199Z" fill="#404040"/>
</svg>
