<svg width="26" height="24" viewBox="0 0 26 24" fill="none" xmlns="http://www.w3.org/2000/svg">
<g clip-path="url(#clip0_436_284)">
<path d="M21.6667 22H19.5V20C19.5 19.2044 19.1576 18.4413 18.5481 17.8787C17.9386 17.3161 17.112 17 16.25 17H9.75001C8.88806 17 8.06141 17.3161 7.45191 17.8787C6.84242 18.4413 6.50001 19.2044 6.50001 20V22H4.33334V20C4.33334 18.6739 4.90403 17.4021 5.91985 16.4645C6.93567 15.5268 8.31342 15 9.75001 15H16.25C17.6866 15 19.0644 15.5268 20.0802 16.4645C21.096 17.4021 21.6667 18.6739 21.6667 20V22ZM13 13C12.1464 13 11.3012 12.8448 10.5126 12.5433C9.72395 12.2417 9.0074 11.7998 8.40382 11.2426C7.80024 10.6855 7.32145 10.0241 6.99479 9.2961C6.66814 8.56815 6.50001 7.78793 6.50001 7C6.50001 6.21207 6.66814 5.43185 6.99479 4.7039C7.32145 3.97595 7.80024 3.31451 8.40382 2.75736C9.0074 2.20021 9.72395 1.75825 10.5126 1.45672C11.3012 1.15519 12.1464 1 13 1C14.7239 1 16.3772 1.63214 17.5962 2.75736C18.8152 3.88258 19.5 5.4087 19.5 7C19.5 8.5913 18.8152 10.1174 17.5962 11.2426C16.3772 12.3679 14.7239 13 13 13ZM13 11C14.1493 11 15.2515 10.5786 16.0641 9.82843C16.8768 9.07828 17.3333 8.06087 17.3333 7C17.3333 5.93913 16.8768 4.92172 16.0641 4.17157C15.2515 3.42143 14.1493 3 13 3C11.8507 3 10.7485 3.42143 9.93588 4.17157C9.12322 4.92172 8.66668 5.93913 8.66668 7C8.66668 8.06087 9.12322 9.07828 9.93588 9.82843C10.7485 10.5786 11.8507 11 13 11Z" fill="#F5F5F5"/>
</g>
<defs>
<clipPath id="clip0_436_284">
<rect width="26" height="24" fill="white"/>
</clipPath>
</defs>
</svg>
