<svg width="18" height="18" viewBox="0 0 18 18" fill="none" xmlns="http://www.w3.org/2000/svg">
<path d="M9 15C9.35 15 9.64567 14.879 9.887 14.637C10.129 14.3957 10.25 14.1 10.25 13.75C10.25 13.4 10.129 13.1043 9.887 12.863C9.64567 12.621 9.35 12.5 9 12.5C8.65 12.5 8.35433 12.621 8.113 12.863C7.871 13.1043 7.75 13.4 7.75 13.75C7.75 14.1 7.871 14.3957 8.113 14.637C8.35433 14.879 8.65 15 9 15ZM8.1 11.15H9.95C9.95 10.55 10.0167 10.1083 10.15 9.825C10.2833 9.54167 10.5667 9.18333 11 8.75C11.5833 8.16667 11.996 7.679 12.238 7.287C12.4793 6.89567 12.6 6.45 12.6 5.95C12.6 5.06667 12.3 4.354 11.7 3.812C11.1 3.27067 10.2917 3 9.275 3C8.35833 3 7.57933 3.225 6.938 3.675C6.296 4.125 5.85 4.75 5.6 5.55L7.25 6.2C7.36667 5.75 7.6 5.38733 7.95 5.112C8.3 4.83733 8.70833 4.7 9.175 4.7C9.625 4.7 10 4.82067 10.3 5.062C10.6 5.304 10.75 5.625 10.75 6.025C10.75 6.30833 10.6583 6.60833 10.475 6.925C10.2917 7.24167 9.98333 7.59167 9.55 7.975C9 8.45833 8.621 8.92067 8.413 9.362C8.20433 9.804 8.1 10.4 8.1 11.15ZM2 18C1.45 18 0.979 17.8043 0.587 17.413C0.195667 17.021 0 16.55 0 16V2C0 1.45 0.195667 0.979 0.587 0.587C0.979 0.195667 1.45 0 2 0H16C16.55 0 17.021 0.195667 17.413 0.587C17.8043 0.979 18 1.45 18 2V16C18 16.55 17.8043 17.021 17.413 17.413C17.021 17.8043 16.55 18 16 18H2ZM2 16H16V2H2V16Z" fill="#18625A"/>
</svg>
