<svg width="22" height="20" viewBox="0 0 22 20" fill="none" xmlns="http://www.w3.org/2000/svg">
<path d="M3 20V10.625L1.2 12L0 10.4L3 8.1V5H5V6.575L11 2L22 10.4L20.8 11.975L19 10.625V20H3ZM5 18H10V14H12V18H17V9.1L11 4.525L5 9.1V18ZM3 4C3 3.16667 3.29167 2.45833 3.875 1.875C4.45833 1.29167 5.16667 1 6 1C6.28333 1 6.521 0.904 6.713 0.712C6.90433 0.520667 7 0.283333 7 0H9C9 0.833333 8.70833 1.54167 8.125 2.125C7.54167 2.70833 6.83333 3 6 3C5.71667 3 5.479 3.09567 5.287 3.287C5.09567 3.479 5 3.71667 5 4H3Z" fill="#18625A"/>
</svg>
